# xmcd
#
# Track frame offsets:
#	150
#	12375
#	21337
#	30809
#	41706
#	53928
#	64015
#	75340
#	85343
#	95293
#	108668
#	121440
#	131577
#	142924
#	154002
#	167052
#	179390
#	189975
#	199998
#	213602
#	224642
#	234814
#	246579
#	256832
#	272004
#	283089
#	294402
#	304592
#	314320
#	323395
#	335198
#	350885
#
# Disc length: 4797 seconds
#
# Revision: 1
# Processed by: cddbd v1.4PL0 Copyright (c) Steve Scherf et al.
# Submitted via: EasyCDDAExtractor 5.0.6
#
DISCID=d912bb20
DTITLE=Patsy Cline
DYEAR=1900
DGENRE=
TTITLE0=Always
TTITLE1=Anytime
TTITLE2=Back In Babys Arms
TTITLE3=Crazy Arms
TTITLE4=Crazy
TTITLE5=Foolin Around
TTITLE6=Half As Much
TTITLE7=Have You Ever Been Lonely 
TTITLE8=Heartaches
TTITLE9=I Cant Help It
TTITLE10=I Fall To Pieces
TTITLE11=I Love You So Much It Hurts
TTITLE12=Ill Sail My Ship Alone
TTITLE13=Leavin On Your Mind
TTITLE14=Lifes A Railway To Heaven
TTITLE15=Poor Mans Roses
TTITLE16=San Antonio Rose
TTITLE17=Seven Lonely Days
TTITLE18=Shes Got You
TTITLE19=South Of The Border 
TTITLE20=Strange
TTITLE21=Sweet Dreams (Of You)
TTITLE22=Thats How A Heartache Begins
TTITLE23=The Wayward Wind
TTITLE24=There He Goes
TTITLE25=Three Cigarettes In An Ashtray
TTITLE26=Tra Le La Le La Triangle
TTITLE27=True Love
TTITLE28=Walkin After Midnight
TTITLE29=When I Get Through With You 
TTITLE30=Why Cant He Be You
TTITLE31=You Were Only Fooling
EXTD=
EXTT0=
EXTT1=
EXTT2=
EXTT3=
EXTT4=
EXTT5=
EXTT6=
EXTT7=
EXTT8=
EXTT9=
EXTT10=
EXTT11=
EXTT12=
EXTT13=
EXTT14=
EXTT15=
EXTT16=
EXTT17=
EXTT18=
EXTT19=
EXTT20=
EXTT21=
EXTT22=
EXTT23=
EXTT24=
EXTT25=
EXTT26=
EXTT27=
EXTT28=
EXTT29=
EXTT30=
EXTT31=
PLAYORDER=
